<?xml version="1.0" encoding="UTF-8"?>
<svg id="Layer_2" data-name="Layer 2" xmlns="http://www.w3.org/2000/svg" xmlns:xlink="http://www.w3.org/1999/xlink" viewBox="0 0 161.04 68.48">
  <defs>
    <style>
      .cls-1 {
        fill: url(#linear-gradient);
      }

      .cls-1, .cls-2, .cls-3, .cls-4 {
        stroke-width: 0px;
      }

      .cls-2 {
        fill: url(#linear-gradient-2);
      }

      .cls-3 {
        fill: #26246a;
      }

      .cls-4 {
        fill: #026e5c;
      }
    </style>
    <linearGradient id="linear-gradient" x1="127.34" y1="19.21" x2="107.76" y2="76.82" gradientUnits="userSpaceOnUse">
      <stop offset="0" stop-color="#26246a"/>
      <stop offset=".04" stop-color="#212d68"/>
      <stop offset=".14" stop-color="#154563"/>
      <stop offset=".26" stop-color="#0c5760"/>
      <stop offset=".41" stop-color="#06645d"/>
      <stop offset=".6" stop-color="#036b5c"/>
      <stop offset="1" stop-color="#026e5c"/>
    </linearGradient>
    <linearGradient id="linear-gradient-2" x1="150.03" y1="9.11" x2="140.63" y2="32.21" gradientUnits="userSpaceOnUse">
      <stop offset="0" stop-color="#26246a"/>
      <stop offset="0" stop-color="#252469"/>
      <stop offset=".44" stop-color="#124c62"/>
      <stop offset=".79" stop-color="#06645d"/>
      <stop offset="1" stop-color="#026e5c"/>
    </linearGradient>
  </defs>
  <g id="Layer_1-2" data-name="Layer 1">
    <g>
      <g>
        <path class="cls-1" d="M115.1,13.13h8.97c3.35,4.52,6.71,9.04,10.06,13.56.88,1.97,1.75,3.94,2.63,5.91-.66,2.26-1.31,4.52-1.97,6.78-6.56,9.7-13.13,19.4-19.69,29.1h-8.09c7.66-11.67,15.31-23.34,22.97-35-4.96-6.78-9.92-13.56-14.88-20.35Z"/>
        <path class="cls-2" d="M152.95,0h8.09c-6.86,10.5-13.71,21-20.57,31.5-1.46-2.04-2.92-4.08-4.38-6.13,5.62-8.46,11.23-16.92,16.85-25.38Z"/>
        <path class="cls-4" d="M140.26,33.69c4.23,5.91,8.46,11.81,12.69,17.72-2.99.07-5.98.15-8.97.22-2.55-3.65-5.1-7.29-7.66-10.94,1.31-2.33,2.63-4.67,3.94-7Z"/>
      </g>
      <g>
        <path class="cls-3" d="M.22,50.5C.29,38.02-.06,25.96,0,13.48c8.42.07,16.83-.29,25.25-.21l-5.14,7.7H6.22c-.07,3.35.07,6.71,0,10.06h7.06c-1.5,2.43-3.21,4.85-4.71,7.28h-2.35v3.42c-2.14,2.92-3.85,5.85-5.99,8.77Z"/>
        <path class="cls-3" d="M11.35,38.52c1.71-2.5,3.42-4.99,5.14-7.49h3v7.49h-8.13Z"/>
      </g>
      <g>
        <path class="cls-3" d="M106.36,21.83c1.85-1.71,3.71-3.42,5.56-5.14v-3.42h-5.56v8.56Z"/>
        <path class="cls-3" d="M111.93,20.76v30.17h-5.56v-24.82c1.85-1.78,3.71-3.57,5.56-5.35Z"/>
      </g>
      <path class="cls-3" d="M58.86,50.72h5.35v-31.88h8.99v-5.56h-23.54v5.56h9.2v31.88Z"/>
      <path class="cls-3" d="M41.52,13.05h-6.42c-3.35,12.55-6.7,25.11-10.06,37.66,1.86.07,3.71.14,5.56.21.79-3.49,1.57-6.99,2.35-10.49h10.49c.79,3.49,1.57,6.99,2.35,10.49,1.93-.07,3.85-.14,5.78-.21-3.35-12.55-6.7-25.11-10.06-37.66ZM34.46,35.52c1.28-5.63,2.57-11.27,3.85-16.91,1.35,5.63,2.71,11.27,4.07,16.91h-7.92Z"/>
      <path class="cls-3" d="M94.22,35.2c3.37-1.43,5.73-4.77,5.73-8.66v-3.86c0-5.2-4.21-9.41-9.41-9.41h-12.2v37.66h5.56v-14.98h4.45l6.89,15.19h6.21l-7.23-15.94ZM83.89,30.81v-12.41h5.74c2.86,0,5.18,2.32,5.18,5.18v2.05c0,2.86-2.32,5.18-5.18,5.18h-5.74Z"/>
    </g>
  </g>
</svg>