<?xml version="1.0" encoding="UTF-8"?>
<svg id="Layer_2" data-name="Layer 2" xmlns="http://www.w3.org/2000/svg" xmlns:xlink="http://www.w3.org/1999/xlink" viewBox="0 0 43.4 55">
  <defs>
    <style>
      .cls-1 {
        fill: url(#linear-gradient);
      }

      .cls-1, .cls-2, .cls-3 {
        stroke-width: 0px;
      }

      .cls-2 {
        fill: url(#linear-gradient-2);
      }

      .cls-3 {
        fill: #026e5c;
      }
    </style>
    <linearGradient id="linear-gradient" x1="16.33" y1="15.43" x2=".6" y2="61.7" gradientUnits="userSpaceOnUse">
      <stop offset="0" stop-color="#26246a"/>
      <stop offset=".04" stop-color="#212d68"/>
      <stop offset=".14" stop-color="#154563"/>
      <stop offset=".26" stop-color="#0c5760"/>
      <stop offset=".41" stop-color="#06645d"/>
      <stop offset=".6" stop-color="#036b5c"/>
      <stop offset="1" stop-color="#026e5c"/>
    </linearGradient>
    <linearGradient id="linear-gradient-2" x1="34.56" y1="7.32" x2="27" y2="25.87" gradientUnits="userSpaceOnUse">
      <stop offset="0" stop-color="#26246a"/>
      <stop offset="0" stop-color="#252469"/>
      <stop offset=".44" stop-color="#124c62"/>
      <stop offset=".79" stop-color="#06645d"/>
      <stop offset="1" stop-color="#026e5c"/>
    </linearGradient>
  </defs>
  <g id="Layer_1-2" data-name="Layer 1">
    <g>
      <path class="cls-1" d="M6.5,10.54h7.2c2.69,3.63,5.39,7.26,8.08,10.89l2.11,4.74c-.53,1.82-1.05,3.63-1.58,5.45-5.27,7.79-10.54,15.58-15.81,23.37H0c6.15-9.37,12.3-18.74,18.45-28.12-3.98-5.45-7.97-10.89-11.95-16.34Z"/>
      <path class="cls-2" d="M36.9,0h6.5c-5.51,8.43-11.01,16.87-16.52,25.3-1.17-1.64-2.34-3.28-3.51-4.92,4.51-6.79,9.02-13.59,13.53-20.38Z"/>
      <path class="cls-3" d="M26.71,27.06c3.4,4.74,6.79,9.49,10.19,14.23-2.4.06-4.8.12-7.2.18-2.05-2.93-4.1-5.86-6.15-8.79,1.05-1.87,2.11-3.75,3.16-5.62Z"/>
    </g>
  </g>
</svg>